<?xml version="1.0" encoding="iso-8859-1"?>
<!-- Generator: Adobe Illustrator 19.0.0, SVG Export Plug-In . SVG Version: 6.00 Build 0)  -->
<svg version="1.1" id="Capa_1" xmlns="http://www.w3.org/2000/svg" xmlns:xlink="http://www.w3.org/1999/xlink" x="0px" y="0px"
	 viewBox="0 0 468.293 468.293" style="enable-background:new 0 0 468.293 468.293;" xml:space="preserve">
<path style="fill:#E1E6E9;" d="M443.317,353.117H24.976C11.182,353.117,0,341.935,0,328.142V140.151
	c0-13.794,11.182-24.976,24.976-24.976h418.341c13.794,0,24.976,11.182,24.976,24.976v187.991
	C468.293,341.935,457.111,353.117,443.317,353.117z"/>
<path style="fill:#D5D6DB;" d="M12.488,340.629v-187.99c0-13.794,11.182-24.976,24.976-24.976h418.341
	c3.66,0,7.111,0.831,10.243,2.245c-3.916-8.672-12.597-14.733-22.731-14.733H24.976C11.182,115.175,0,126.357,0,140.151v187.99
	c0,10.134,6.061,18.814,14.733,22.73C13.319,347.739,12.488,344.289,12.488,340.629z"/>
<path style="fill:#E56353;" d="M31.281,314.97V165.81c0-10.345,8.386-18.732,18.732-18.732h196.172v186.623H50.013
	C39.668,333.702,31.281,325.315,31.281,314.97z"/>
<g>
	<rect x="65.873" y="230.768" style="fill:#D15241;" width="145.714" height="19.244"/>
	<rect x="65.873" y="269.256" style="fill:#D15241;" width="145.714" height="19.244"/>
	<rect x="65.873" y="192.25" style="fill:#D15241;" width="145.714" height="19.244"/>
</g>
<g>
	<path style="fill:#64798A;" d="M321.089,212.563c-8.006,0-14.728,2.653-20.166,7.965c-5.444,5.312-8.163,11.931-8.163,19.862
		c0,7.928,2.719,14.55,8.163,19.859c5.438,5.312,12.16,7.969,20.166,7.969s14.728-2.656,20.166-7.969
		c5.444-5.309,8.163-11.931,8.163-19.859c0-7.931-2.719-14.55-8.163-19.862C335.817,215.216,329.095,212.563,321.089,212.563z
		 M334.602,254.207c-3.671,3.799-8.175,5.698-13.513,5.698s-9.842-1.898-13.513-5.698c-3.665-3.796-5.5-8.401-5.5-13.817
		c0-5.416,1.836-10.02,5.5-13.82c3.671-3.796,8.175-5.695,13.513-5.695s9.842,1.898,13.513,5.695c3.665,3.799,5.5,8.404,5.5,13.82
		C340.102,245.806,338.266,250.41,334.602,254.207z"/>
	<polygon style="fill:#64798A;" points="360.888,267.679 369.972,267.679 369.972,245.508 393.834,245.508 393.834,237.117 
		369.972,237.117 369.972,222.339 396.684,222.339 396.759,213.869 360.888,213.869 	"/>
	<polygon style="fill:#64798A;" points="443.18,222.339 443.255,213.869 407.384,213.869 407.384,267.679 416.468,267.679 
		416.468,245.508 440.33,245.508 440.33,237.117 416.468,237.117 416.468,222.339 	"/>
</g>
<g>
</g>
<g>
</g>
<g>
</g>
<g>
</g>
<g>
</g>
<g>
</g>
<g>
</g>
<g>
</g>
<g>
</g>
<g>
</g>
<g>
</g>
<g>
</g>
<g>
</g>
<g>
</g>
<g>
</g>
</svg>
