<?xml version="1.0" encoding="iso-8859-1"?>
<!-- Generator: Adobe Illustrator 19.0.0, SVG Export Plug-In . SVG Version: 6.00 Build 0)  -->
<svg version="1.1" id="Capa_1" xmlns="http://www.w3.org/2000/svg" xmlns:xlink="http://www.w3.org/1999/xlink" x="0px" y="0px"
	 viewBox="0 0 468.293 468.293" style="enable-background:new 0 0 468.293 468.293;" xml:space="preserve">
<path style="fill:#E1E6E9;" d="M372.036,330.403H96.257C43.096,330.403,0,287.308,0,234.146v0c0-53.161,43.096-96.257,96.257-96.257
	h275.779c53.161,0,96.257,43.096,96.257,96.257v0C468.293,287.308,425.197,330.403,372.036,330.403z"/>
<ellipse style="fill:#3EA69B;" cx="343.284" cy="240.384" rx="73.809" ry="73.809"/>
<g>
	<path style="fill:#64798A;" d="M134.341,252.859c-5.293,5.171-11.835,7.756-19.628,7.756s-14.335-2.585-19.628-7.756
		c-5.299-5.168-7.945-11.613-7.945-19.329c0-7.719,2.646-14.162,7.945-19.332c5.293-5.171,11.835-7.753,19.628-7.753
		s14.335,2.582,19.628,7.753c5.299,5.171,7.945,11.613,7.945,19.332C142.286,241.246,139.639,247.691,134.341,252.859z
		 M127.865,220.078c-3.573-3.695-7.957-5.543-13.152-5.543s-9.579,1.848-13.152,5.543c-3.567,3.698-5.354,8.18-5.354,13.451
		c0,5.271,1.787,9.753,5.354,13.448c3.573,3.698,7.957,5.546,13.152,5.546s9.579-1.848,13.152-5.546
		c3.567-3.695,5.354-8.177,5.354-13.448C133.219,228.258,131.432,223.776,127.865,220.078z"/>
	<path style="fill:#64798A;" d="M192.713,207.715h8.841v52.375h-9.591l-29.671-38.213v38.213h-8.841v-52.375h8.841l30.421,39.113
		V207.715z"/>
</g>
<ellipse style="fill:#44C4A1;" cx="355.769" cy="234.106" rx="73.809" ry="73.809"/>
<g>
	<path style="fill:#3EA69B;" d="M355.768,201.365c-4.311,0-7.805,3.494-7.805,7.805v49.951c0,4.311,3.494,7.805,7.805,7.805
		s7.805-3.494,7.805-7.805V209.17C363.572,204.859,360.078,201.365,355.768,201.365z"/>
	<path style="fill:#3EA69B;" d="M386.987,201.365c-4.311,0-7.805,3.494-7.805,7.805v49.951c0,4.311,3.494,7.805,7.805,7.805
		s7.805-3.494,7.805-7.805V209.17C394.792,204.859,391.298,201.365,386.987,201.365z"/>
	<path style="fill:#3EA69B;" d="M324.548,201.365c-4.311,0-7.805,3.494-7.805,7.805v49.951c0,4.311,3.494,7.805,7.805,7.805
		s7.805-3.494,7.805-7.805V209.17C332.353,204.859,328.859,201.365,324.548,201.365z"/>
</g>
<g>
</g>
<g>
</g>
<g>
</g>
<g>
</g>
<g>
</g>
<g>
</g>
<g>
</g>
<g>
</g>
<g>
</g>
<g>
</g>
<g>
</g>
<g>
</g>
<g>
</g>
<g>
</g>
<g>
</g>
</svg>
