<svg id="Capa_1" enable-background="new 0 0 512 512" height="512" viewBox="0 0 512 512" width="512" xmlns="http://www.w3.org/2000/svg"><g><path d="m226.986 241.857 25.858-25.857-25.857-25.857c-7.811-7.811-7.811-20.475 0-28.285s20.474-7.811 28.284 0l25.858 25.858 25.858-25.858c7.811-7.811 20.474-7.811 28.284 0s7.811 20.475 0 28.285l-25.858 25.857 25.857 25.857c7.811 7.811 7.811 20.475 0 28.285-7.811 7.811-20.475 7.809-28.284 0l-25.858-25.858-25.858 25.858c-7.811 7.811-20.475 7.809-28.284 0-7.81-7.81-7.81-20.474 0-28.285zm284.378-136.89-59.487 232c-2.268 8.847-10.24 15.033-19.373 15.033h-332.513c-11.046 0-20-8.954-20-20 0-8.367 0-286.042 0-292h-59.991c-11.046 0-20-8.954-20-20s8.954-20 20-20h79.991c11.046 0 20 8.954 20 20v60h372c13.056 0 22.614 12.33 19.373 24.967zm-45.148 15.033h-346.225v192h296.994zm-266.225 332c0 33.084-26.916 60-60 60s-60-26.916-60-60 26.916-60 60-60 60 26.916 60 60zm-40 0c0-11.028-8.972-20-20-20s-20 8.972-20 20 8.972 20 20 20 20-8.972 20-20zm253.091 0c0 33.084-26.916 60-60 60s-60-26.916-60-60 26.916-60 60-60 60 26.916 60 60zm-40 0c0-11.028-8.972-20-20-20s-20 8.972-20 20 8.972 20 20 20 20-8.972 20-20z"/></g></svg>